<svg xmlns="http://www.w3.org/2000/svg" xmlns:xlink="http://www.w3.org/1999/xlink" version="1.1" data-diagram-type="DESCRIPTION" style="width:928px;height:415px;background:#FFFFFF;" width="928px" height="415px" viewBox="0 0 928 415" zoomAndPan="magnify" preserveAspectRatio="none" contentStyleType="text/css"><?plantuml 1.2026.8?><defs/><g font-family="sans-serif" lengthAdjust="spacing"><g class="title" data-source-line="2"><text x="336.676" y="22.995" fill="#000" font-size="14" textLength="248.35" font-weight="700">Phân rã — Quản lý món (UC-13)</text></g><!--cluster Hệ thống đặt món trước--><g class="cluster" data-qualified-name="H. th.ng ..t m.n tr..c" id="ent0002" data-source-line="6"><rect x="7" y="164.927" width="723" height="236.8" fill="none" style="stroke:#555;stroke-width:1;" rx="2.5" ry="2.5"/><text x="280.848" y="178.994" fill="#000" font-size="13" textLength="175.303" font-weight="700">Hệ thống đặt món trước</text></g><!--entity UC13--><g class="entity" data-qualified-name="H. th.ng ..t m.n tr..c.UC13" id="ent0003" data-source-line="7"><ellipse cx="329" cy="230.569" rx="92.95" ry="31.642" fill="#FFF" style="stroke:#333;stroke-width:0.5;"/><text x="309.088" y="214.27" fill="#000" font-size="13" textLength="39.825">UC-13</text><text x="287.449" y="229.403" fill="#000" font-size="13" textLength="83.104">Quản lý món</text><text x="257.713" y="244.536" fill="#000" font-size="13" textLength="142.575">(xem danh sách món)</text></g><!--entity UC131--><g class="entity" data-qualified-name="H. th.ng ..t m.n tr..c.UC131" id="ent0004" data-source-line="8"><ellipse cx="72.997" cy="362.464" rx="49.737" ry="23.257" fill="#FFF" style="stroke:#333;stroke-width:0.5;"/><text x="46.883" y="357.297" fill="#000" font-size="13" textLength="52.229">UC-13.1</text><text x="38.082" y="372.43" fill="#000" font-size="13" textLength="69.831">Thêm món</text></g><!--entity UC132--><g class="entity" data-qualified-name="H. th.ng ..t m.n tr..c.UC132" id="ent0005" data-source-line="9"><ellipse cx="237.997" cy="362.468" rx="80.007" ry="22.351" fill="#FFF" style="stroke:#333;stroke-width:0.5;"/><text x="211.883" y="355.896" fill="#000" font-size="13" textLength="52.229">UC-13.2</text><text x="177.777" y="371.029" fill="#000" font-size="13" textLength="120.44">Sửa thông tin món</text></g><!--entity UC133--><g class="entity" data-qualified-name="H. th.ng ..t m.n tr..c.UC133" id="ent0006" data-source-line="10"><ellipse cx="445.999" cy="362.466" rx="92.929" ry="22.23" fill="#FFF" style="stroke:#333;stroke-width:0.5;"/><text x="419.884" y="355.698" fill="#000" font-size="13" textLength="52.229">UC-13.3</text><text x="375.229" y="370.831" fill="#000" font-size="13" textLength="141.54">Đổi còn bán / tạm hết</text></g><!--entity UC134--><g class="entity" data-qualified-name="H. th.ng ..t m.n tr..c.UC134" id="ent0007" data-source-line="11"><ellipse cx="644.001" cy="362.467" rx="70.191" ry="22.5" fill="#FFF" style="stroke:#333;stroke-width:0.5;"/><text x="617.887" y="356.133" fill="#000" font-size="13" textLength="52.229">UC-13.4</text><text x="591.858" y="371.266" fill="#000" font-size="13" textLength="104.286">Ngừng bán món</text></g><!--entity Manager--><g class="entity" data-qualified-name="Manager" id="ent0001" data-source-line="4"><ellipse cx="328.997" cy="51.297" rx="8" ry="8" fill="#F1F1F1" style="stroke:#181818;stroke-width:0.5;"/><path d="M328.997,59.297 L328.997,86.297 M315.997,67.297 L341.997,67.297 M328.997,86.297 L315.997,101.297 M328.997,86.297 L341.997,101.297" style="stroke:#181818;stroke-width:0.5;" fill="none"/><text x="303.94" y="114.864" fill="#000" font-size="13" textLength="50.115">Quản lý</text></g><g class="entity" data-qualified-name="N1" id="ent0013" data-source-line="20"><path d="M746.3,210.437 L746.3,250.703 A0,0 0 0 0 746.3,250.703 L798.15,250.703 L672.65,341.467 L806.15,250.703 L913.702,250.703 A0,0 0 0 0 913.702,250.703 L913.702,220.437 L903.702,210.437 L746.3,210.437 A0,0 0 0 0 746.3,210.437" style="stroke:#181818;stroke-width:0.5;" fill="#FEFFDD"/><path d="M903.702,210.437 L903.702,220.437 L913.702,220.437 L903.702,210.437" style="stroke:#181818;stroke-width:0.5;" fill="#FEFFDD"/><text x="752.3" y="227.504" fill="#000" font-size="13" textLength="119.628">Món không bị xóa,</text><text x="752.3" y="242.637" fill="#000" font-size="13" textLength="146.402">chỉ ngừng bán (BR-03)</text></g><!--link Manager to UC13--><g class="link" data-entity-1="ent0001" data-entity-2="ent0003" id="lnk8" data-source-line="14" data-link-type="association"><path d="M329,118.377 C329,143.077 329,175.167 329,198.527" style="stroke:#333;stroke-width:1;" fill="none" id="Manager-UC13"/></g><!--reverse link UC13 to UC131--><g class="link" data-entity-1="ent0003" data-entity-2="ent0004" id="lnk9" data-source-line="15" data-link-type="dependency"><path d="M271.376,259.007 C249.086,269.747 227.45,280.327 204,292.217 C169.92,309.477 131.3,330.017 104.87,344.227" style="stroke:#333;stroke-width:1;stroke-dasharray:7,7;" fill="none" id="UC13-backto-UC131"/><polygon points="275.88,256.837,266.036,257.14,271.376,259.007,269.508,264.347,275.88,256.837" fill="#333" style="stroke:#333;stroke-width:1;stroke-linejoin:miter;stroke-miterlimit:10;"/><text x="205" y="305.284" fill="#000" font-size="13" textLength="61.185">«extend»</text></g><!--reverse link UC13 to UC132--><g class="link" data-entity-1="ent0003" data-entity-2="ent0005" id="lnk10" data-source-line="16" data-link-type="dependency"><path d="M305.022,265.793 C288.122,289.933 267.7,319.077 252.75,340.417" style="stroke:#333;stroke-width:1;stroke-dasharray:7,7;" fill="none" id="UC13-backto-UC132"/><polygon points="307.89,261.697,299.452,266.776,305.022,265.793,306.005,271.364,307.89,261.697" fill="#333" style="stroke:#333;stroke-width:1;stroke-linejoin:miter;stroke-miterlimit:10;"/><text x="287.23" y="305.284" fill="#000" font-size="13" textLength="61.185">«extend»</text></g><!--reverse link UC13 to UC133--><g class="link" data-entity-1="ent0003" data-entity-2="ent0006" id="lnk11" data-source-line="17" data-link-type="dependency"><path d="M358.896,264.762 C380.736,289.012 407.81,319.077 427.21,340.607" style="stroke:#333;stroke-width:1;stroke-dasharray:7,7;" fill="none" id="UC13-backto-UC133"/><polygon points="355.55,261.047,358.601,270.411,358.896,264.762,364.545,265.058,355.55,261.047" fill="#333" style="stroke:#333;stroke-width:1;stroke-linejoin:miter;stroke-miterlimit:10;"/><text x="398.98" y="305.284" fill="#000" font-size="13" textLength="61.185">«extend»</text></g><!--reverse link UC13 to UC134--><g class="link" data-entity-1="ent0003" data-entity-2="ent0007" id="lnk12" data-source-line="18" data-link-type="dependency"><path d="M391.762,257.453 C453.982,283.113 546.55,321.287 601.82,344.077" style="stroke:#333;stroke-width:1;stroke-dasharray:7,7;" fill="none" id="UC13-backto-UC134"/><polygon points="387.14,255.547,393.935,262.676,391.762,257.453,396.985,255.28,387.14,255.547" fill="#333" style="stroke:#333;stroke-width:1;stroke-linejoin:miter;stroke-miterlimit:10;"/><text x="515.71" y="305.284" fill="#000" font-size="13" textLength="61.185">«extend»</text></g><?plantuml-src VL4_IyD05D_lKpmpjM2YQJf9wM0NbnR_TGl8DJsIOF8AoHKg8hY9k5ZGoQbsKmInWf0W3bVy7kSdyPfeDLQwt72_l--z5H-TeDzbS13peu0PVZyC2FTvm63R4xS8aHZ3n-aLxFHbCaO8n2k4Oe9GQZTqqoeJGXtUYq3xmJMWCJGfKfT5X4JCuHHTvQTjoVGCk2VJ8Rem7ShaXUTUF7f_bEcDey4n0UZ7pA6nucS9Dlv9jh4qO25qANeGYv7ZPR_bBBNTCAq51yEqSTyJTs56dFFCHMB5nZsPFb1LKZohZjp7egQog545fvSolVR14Ky87J52M0Ckar48dapU-5pyJxEgZIrNflSgAnCMmghaX92lFOAkvyFD7gWPHZu2R42jnWQSORTUBsAL9PYr1AiMCO8zhkesPsSwpBVIaUa53CI4hjheg6kU0_wUeRIvgwzR-JrQ9ccPyEty2G00?></g></svg>