<svg xmlns="http://www.w3.org/2000/svg" xmlns:xlink="http://www.w3.org/1999/xlink" version="1.1" data-diagram-type="DESCRIPTION" style="width:578px;height:516px;background:#FFFFFF;" width="578px" height="516px" viewBox="0 0 578 516" zoomAndPan="magnify" preserveAspectRatio="none" contentStyleType="text/css"><?plantuml 1.2026.8?><defs/><g font-family="sans-serif" lengthAdjust="spacing"><g class="title" data-source-line="2"><text x="195.849" y="22.995" fill="#000" font-size="14" textLength="179.409" font-weight="700">Phân rã — Bếp (UC-12)</text></g><!--cluster Hệ thống đặt món trước--><g class="cluster" data-qualified-name="H. th.ng ..t m.n tr..c" id="ent0002" data-source-line="6"><rect x="7" y="164.937" width="212" height="337.6" fill="none" style="stroke:#555;stroke-width:1;" rx="2.5" ry="2.5"/><text x="25.348" y="179.004" fill="#000" font-size="13" textLength="175.303" font-weight="700">Hệ thống đặt món trước</text></g><!--entity UC12--><g class="entity" data-qualified-name="H. th.ng ..t m.n tr..c.UC12" id="ent0003" data-source-line="7"><ellipse cx="116.996" cy="221.151" rx="73.216" ry="22.214" fill="#FFF" style="stroke:#333;stroke-width:0.5;"/><text x="97.084" y="214.359" fill="#000" font-size="13" textLength="39.825">UC-12</text><text x="61.695" y="229.491" fill="#000" font-size="13" textLength="110.602">Xử lý đơn tại bếp</text></g><!--entity UC121--><g class="entity" data-qualified-name="H. th.ng ..t m.n tr..c.UC121" id="ent0004" data-source-line="8"><ellipse cx="116.996" cy="342.693" rx="81.266" ry="22.336" fill="#FFF" style="stroke:#333;stroke-width:0.5;"/><text x="90.882" y="336.098" fill="#000" font-size="13" textLength="52.229">UC-12.1</text><text x="55.745" y="351.231" fill="#000" font-size="13" textLength="122.503">Xem hàng chờ bếp</text></g><!--entity UC122--><g class="entity" data-qualified-name="H. th.ng ..t m.n tr..c.UC122" id="ent0005" data-source-line="9"><ellipse cx="112.999" cy="464.288" rx="90.119" ry="22.251" fill="#FFF" style="stroke:#333;stroke-width:0.5;"/><text x="86.884" y="457.555" fill="#000" font-size="13" textLength="52.229">UC-12.2</text><text x="44.517" y="472.688" fill="#000" font-size="13" textLength="136.963">Cập nhật tiến độ đơn</text></g><!--entity Kitchen--><g class="entity" data-qualified-name="Kitchen" id="ent0001" data-source-line="4"><ellipse cx="116.999" cy="51.297" rx="8" ry="8" fill="#F1F1F1" style="stroke:#181818;stroke-width:0.5;"/><path d="M116.999,59.297 L116.999,86.297 M103.999,67.297 L129.999,67.297 M116.999,86.297 L103.999,101.297 M116.999,86.297 L129.999,101.297" style="stroke:#181818;stroke-width:0.5;" fill="none"/><text x="69.76" y="114.864" fill="#000" font-size="13" textLength="94.479">Nhân viên bếp</text></g><g class="entity" data-qualified-name="GMN9" id="ent0010" data-source-line="17"><path d="M234.9,322.567 L234.9,338.697 L198.52,342.697 L234.9,346.697 L234.9,362.833 A0,0 0 0 0 234.9,362.833 L563.108,362.833 A0,0 0 0 0 563.108,362.833 L563.108,332.567 L553.108,322.567 L234.9,322.567 A0,0 0 0 0 234.9,322.567" style="stroke:#181818;stroke-width:0.5;" fill="#FEFFDD"/><path d="M553.108,322.567 L553.108,332.567 L563.108,332.567 L553.108,322.567" style="stroke:#181818;stroke-width:0.5;" fill="#FEFFDD"/><text x="240.9" y="339.634" fill="#000" font-size="13" textLength="260.317">Nhóm sắp tới / cần chuẩn bị / đang làm,</text><text x="240.9" y="354.767" fill="#000" font-size="13" textLength="307.208">sắp xếp và đánh dấu trễ (BR-21, BR-22, BR-26)</text></g><g class="entity" data-qualified-name="GMN12" id="ent0013" data-source-line="21"><path d="M238.01,451.717 L238.01,460.287 L203.49,464.287 L238.01,468.287 L238.01,476.85 A0,0 0 0 0 238.01,476.85 L559.984,476.85 A0,0 0 0 0 559.984,476.85 L559.984,461.717 L549.984,451.717 L238.01,451.717 A0,0 0 0 0 238.01,451.717" style="stroke:#181818;stroke-width:0.5;" fill="#FEFFDD"/><path d="M549.984,451.717 L549.984,461.717 L559.984,461.717 L549.984,451.717" style="stroke:#181818;stroke-width:0.5;" fill="#FEFFDD"/><text x="244.01" y="468.784" fill="#000" font-size="13" textLength="300.974">CONFIRMED → PREPARING → READY (SRS B.5)</text></g><!--link Kitchen to UC12--><g class="link" data-entity-1="ent0001" data-entity-2="ent0003" id="lnk6" data-source-line="12" data-link-type="association"><path d="M117,118.197 C117,143.887 117,177.287 117,198.727" style="stroke:#333;stroke-width:1;" fill="none" id="Kitchen-UC12"/></g><!--link UC12 to UC121--><g class="link" data-entity-1="ent0003" data-entity-2="ent0004" id="lnk7" data-source-line="13" data-link-type="dependency"><path d="M117,243.797 C117,265.467 117,293.597 117,315.207" style="stroke:#333;stroke-width:1;stroke-dasharray:7,7;" fill="none" id="UC12-to-UC121"/><polygon points="117,320.207,121,311.207,117,315.207,113,311.207,117,320.207" fill="#333" style="stroke:#333;stroke-width:1;stroke-linejoin:miter;stroke-miterlimit:10;"/><text x="118" y="286.424" fill="#000" font-size="13" textLength="63.007">«include»</text></g><!--reverse link UC121 to UC122--><g class="link" data-entity-1="ent0004" data-entity-2="ent0005" id="lnk8" data-source-line="14" data-link-type="dependency"><path d="M116.112,370.354 C115.382,392.024 114.44,420.177 113.72,441.787" style="stroke:#333;stroke-width:1;stroke-dasharray:7,7;" fill="none" id="UC121-backto-UC122"/><polygon points="116.28,365.357,111.979,374.217,116.112,370.354,119.975,374.486,116.28,365.357" fill="#333" style="stroke:#333;stroke-width:1;stroke-linejoin:miter;stroke-miterlimit:10;"/><text x="116.24" y="408.104" fill="#000" font-size="13" textLength="61.185">«extend»</text></g><?plantuml-src RP71I-D05CRlyrTyzbJ1HX9O3r8AjjPLbgqb8YWiI4t7PY2PbcGYBYBiPTt3dhhiHKHeLqGKHC63a20U8luVur_YIoAkg9SyClD-x_lUDnD2EbxKvTW8rNUF6oBoFQQ4yZZQRlfF8aYFyVZZB-ewlXkWlDgecDOaOnr7zGEKMddFjaZF9JQpZX8w8Ru8vRXSCXPmHtLaZuQL5dNo2yhLoL3sS3_KyOs2drvBgE3XIYU7JWcx38X2xdH2wi-5liardLp0Isy9UHXJiux7ufNIQiEqtb66IHptuQOZqd98y-WDOhvdIAkXuui1f4j5GGaYPEOqEIZ4NsYBxJ7sl2CgbS94ze5Xr8hvc4Mr-XnjhSQAiwfX57n-otSKbrswPBAlE0BHSnNwMo_-ADfh7w6EBmUqTd8eC0r7nwUIDefqV9O5dlocm_iXHKmPZVmfmWfW9t-jxNH4j-bOkkZg-2IYh7No4-MwNR7CAMJ5AihC92Cpo9nyO2UBkB7SMbYolpRdyRZ_1ssxsPwpbrgVyp-xEJU_ZlAAlOAwyUd_g2S0?></g></svg>